<?xml version="1.0" encoding="UTF-8" standalone="no"?>
<svg
   version="1.0"
   width="999.000000pt"
   height="1280.000000pt"
   viewBox="0 0 999.000000 1280.000000"
   preserveAspectRatio="xMidYMid meet"
   id="svg43"
   sodipodi:docname="296726.svg"
   inkscape:version="1.2.1 (9c6d41e410, 2022-07-14)"
   xmlns:inkscape="http://www.inkscape.org/namespaces/inkscape"
   xmlns:sodipodi="http://sodipodi.sourceforge.net/DTD/sodipodi-0.dtd"
   xmlns="http://www.w3.org/2000/svg"
   xmlns:svg="http://www.w3.org/2000/svg">
  <defs
     id="defs47" />
  <sodipodi:namedview
     id="namedview45"
     pagecolor="#ffffff"
     bordercolor="#000000"
     borderopacity="0.25"
     inkscape:showpageshadow="2"
     inkscape:pageopacity="0.0"
     inkscape:pagecheckerboard="0"
     inkscape:deskcolor="#d1d1d1"
     inkscape:document-units="pt"
     showgrid="false"
     inkscape:zoom="0.43476563"
     inkscape:cx="667.02606"
     inkscape:cy="853.33333"
     inkscape:window-width="1920"
     inkscape:window-height="974"
     inkscape:window-x="-11"
     inkscape:window-y="-11"
     inkscape:window-maximized="1"
     inkscape:current-layer="layer1" />
  <metadata
     id="metadata29">
Created by potrace 1.15, written by Peter Selinger 2001-2017
</metadata>
  <g
     transform="translate(0.000000,1280.000000) scale(0.100000,-0.100000)"
     fill="#000000"
     stroke="none"
     id="g41">
    <path
       d="M7010 12784 c-412 -64 -775 -356 -919 -739 -123 -329 -97 -688 71 -982 394 -687 1325 -809 1883 -246 348 351 433 890 210 1333 -231 458 -735 714 -1245 634z"
       id="path31" />
    <path
       d="M2234 10415 c-54 -28 -70 -92 -34 -138 26 -33 27 -33 525 -182 231 -70 582 -175 780 -235 198 -60 525 -158 728 -219 202 -61 530 -160 730 -220 199 -60 529 -160 732 -221 204 -61 384 -115 401 -121 18 -5 34 -18 37 -27 3 -9 34 -80 70 -157 273 -593 459 -1226 517 -1760 11 -106 26 -140 71 -161 31 -15 3115 138 3148 155 24 13 51 61 51 90 0 39 -70 290 -123 442 -289 825 -803 1907 -1165 2454 -108 162 -196 273 -225 284 -13 5 -990 12 -2173 15 -1182 3 -2574 8 -3094 11 -851 5 -948 4 -976 -10z"
       id="path33" />
    <path
       d="M6773 6939 c-18 -5 -40 -21 -49 -35 -12 -17 -92 -507 -270 -1652 -139 -895 -375 -2409 -524 -3365 -148 -956 -270 -1754 -270 -1774 0 -73 91 -119 147 -75 13 9 518 928 1123 2042 606 1114 1122 2062 1147 2108 24 46 47 82 49 80 2 -2 62 -249 133 -548 72 -300 202 -849 291 -1220 89 -371 206 -862 260 -1090 54 -228 149 -624 210 -880 67 -284 118 -475 129 -490 25 -35 82 -48 115 -26 14 9 32 26 40 39 9 15 26 148 50 402 20 209 56 592 81 850 68 703 120 1242 175 1815 27 283 67 702 89 930 23 228 81 838 131 1355 50 517 100 1034 111 1149 16 165 18 214 9 237 -23 56 -33 57 -362 68 -581 20 -2154 68 -2488 76 -129 3 -248 8 -265 10 -16 2 -45 -1 -62 -6z"
       id="path37" />
    <path
       d="M152 6624 c-88 -44 -152 -146 -152 -244 0 -108 87 -223 191 -254 29 -9 63 -16 76 -16 27 0 19 34 93 -370 32 -179 86 -473 120 -655 34 -181 92 -499 130 -705 38 -206 96 -523 130 -705 34 -181 119 -645 190 -1030 71 -385 161 -873 200 -1085 39 -212 111 -602 160 -867 49 -265 96 -495 104 -510 17 -34 40 -55 83 -77 29 -15 165 -16 1486 -16 l1454 0 45 30 c31 21 51 43 62 71 12 28 97 859 301 2937 157 1593 287 2911 290 2929 5 28 11 33 59 47 62 18 137 80 166 136 69 135 6 309 -132 371 -51 22 -66 23 -403 30 -192 4 -1306 8 -2476 8 l-2125 1 -52 -26z"
       id="path39" />
  </g>
  <g
     inkscape:groupmode="layer"
     id="layer1"
     inkscape:label="Layer 1">
    <g
       id="g4154"
       transform="matrix(0.60233307,-0.15514035,0,0.60459947,-208.58781,554.22425)">
      <g
         id="g4168"
         transform="matrix(3.3333332,0,0,3.3333332,-70.533331,-138.76667)">
        <g
           id="g4337"
           transform="matrix(1.0176991,0,0,1.0176991,26.69362,1.3011796)">
          <g
             id="g4322">
            <path
               style="fill:#0050aa;fill-opacity:1"
               d="M 123.31133,8.1834654 227.95357,-37.772751 267.53477,66.869487 162.89253,112.8257 Z"
               id="path10" />
            <g
               transform="matrix(0.92603751,-0.40669217,0.35027605,0.92603751,139.22969,-1.3775626)"
               id="g4311">
              <path
                 id="path14"
                 d="M 38.40948,7.09093 A 51.789587,51.789587 0 1 0 90.199072,58.901183 51.810252,51.810252 0 0 0 38.40948,7.09093 Z"
                 class="cls-3"
                 style="fill:#fff000;fill-rule:evenodd;stroke:#e60a14;stroke-width:3.45;stroke-miterlimit:4;stroke-dasharray:none;stroke-opacity:1" />
              <g
                 transform="translate(-46.689998)"
                 id="g4179">
                <g
                   id="g4295">
                  <g
                     id="g4285">
                    <path
                       style="fill:#e60a14;fill-opacity:1;fill-rule:evenodd"
                       class="cls-4"
                       d="m 82.11558,60.750666 -8.85,-8.85 -13.343057,13.334288 1.726971,1.731779 3.986056,-3.996097 7.12,7.139999 -2.615646,2.605605 1.710001,1.719999 15.952604,-15.943837 -1.726991,-1.721758 -3.96,3.979998 z"
                       id="path16" />
                    <circle
                       r="5.8074999"
                       cy="44.952782"
                       cx="71.781723"
                       id="path4217"
                       style="color:#000000;clip-rule:nonzero;display:inline;overflow:visible;visibility:visible;opacity:1;isolation:auto;mix-blend-mode:normal;color-interpolation:sRGB;color-interpolation-filters:linearRGB;solid-color:#000000;solid-opacity:1;fill:#e60a14;fill-opacity:1;fill-rule:nonzero;stroke:none;stroke-width:1.15;stroke-linecap:butt;stroke-linejoin:miter;stroke-miterlimit:4;stroke-dasharray:none;stroke-dashoffset:0;stroke-opacity:1;color-rendering:auto;image-rendering:auto;shape-rendering:auto;text-rendering:auto;enable-background:accumulate" />
                  </g>
                  <g
                     id="g4289">
                    <g
                       transform="translate(27.655002,1.3654433)"
                       id="g4164">
                      <path
                         id="path22"
                         style="fill:#0050aa"
                         d="m 55.75,48.1992 v 3.40039 h 2.63086 v 11.8105 H 55.7207 v 3.41992 h 15 c 11.14,0 11.2793,-18.6309 0.0293,-18.6309 h -15 z m 12.1406,5.80078 h 0.628906 c 3.29,0 3.29109,7 0.121094,7 h -0.75 z M 13.08,48.2 h 15.76 v 3.4 h -2.63 v 11 l 9.13,-5.08 v 9.31 H 13.08 v -3.42 h 2.64 V 51.6 h -2.64 z m 66.45,0 v 3.4 h 2.64 v 11.81 h -2.64 v 3.42 h 22.28 v -9.31 l -9.14,5.08 v -11 h 2.64 v -3.4 z" />
                    </g>
                  </g>
                </g>
              </g>
            </g>
          </g>
        </g>
      </g>
    </g>
  </g>
</svg>
